<?xml version="1.0" encoding="UTF-8"?>
<svg version="1.1" xmlns="http://www.w3.org/2000/svg" width="1044" height="329">
<path d="M0 0 C7.26 0 14.52 0 22 0 C29.03510848 8.63716288 29.03510848 8.63716288 31.0234375 12.9921875 C34.06040452 19.27927907 37.65454823 25.15447478 41.32846069 31.07879639 C43.16618672 34.05518334 44.96947302 37.05229847 46.77734375 40.046875 C51.1829093 47.32457824 55.65655034 54.55953205 60.15405273 61.78076172 C60.64977783 62.57756348 61.14550293 63.37436523 61.65625 64.1953125 C62.08744141 64.88641113 62.51863281 65.57750977 62.96289062 66.28955078 C64 68 64 68 65 70 C65.33 46.9 65.66 23.8 66 0 C72.93 0 79.86 0 87 0 C87 36.3 87 72.6 87 110 C79.41 110 71.82 110 64 110 C56.8241743 101.22180546 56.8241743 101.22180546 54.87109375 96.8671875 C51.76635989 90.34735724 47.97414548 84.3510359 44.125 78.25 C36.68832428 66.20472236 29.36017029 54.09170834 22 42 C21.67 62.13 21.34 82.26 21 103 C17.90414592 99.90414592 15.73453964 96.62100729 13.4375 92.9375 C10.55582568 88.21366472 10.55582568 88.21366472 7 84 C3.98694043 84.38878188 2.60314689 85.26456874 0 87 C0 58.29 0 29.58 0 0 Z " fill="#5BA379" transform="translate(509,102)"/>
<path d="M0 0 C3.18983425 2.51561928 6.00616803 5.33772131 8.71875 8.35546875 C9.28722656 7.81277344 9.85570312 7.27007812 10.44140625 6.7109375 C19.08859943 -1.30106954 24.30399297 -3.2129366 36.12109375 -2.921875 C43.61613257 -2.34408156 47.83292824 -0.06750689 53.17578125 5.1484375 C58.53102907 12.80847553 58.11781295 20.68973395 58.01171875 29.69921875 C58.00611365 31.07783544 58.00184788 32.45645817 57.99885559 33.83508301 C57.98747857 37.43877064 57.95807457 41.04208737 57.92474365 44.64562988 C57.89388727 48.33271266 57.88031722 52.01985619 57.86523438 55.70703125 C57.83319653 62.92336462 57.78048875 70.13931716 57.71875 77.35546875 C50.78875 77.35546875 43.85875 77.35546875 36.71875 77.35546875 C36.689021 75.15419312 36.689021 75.15419312 36.65869141 72.90844727 C36.58229737 67.43464759 36.49363296 61.96110207 36.40136719 56.48754883 C36.36321664 54.12399331 36.32834013 51.76038249 36.296875 49.39672852 C36.25092113 45.9882437 36.19297731 42.58013508 36.1328125 39.171875 C36.12126129 38.1246376 36.10971008 37.07740021 36.09780884 35.99842834 C36.20978822 25.76834653 36.20978822 25.76834653 32.35317993 16.66334534 C29.62480842 14.48009284 27.14332623 14.47155608 23.71875 14.35546875 C20.45124119 15.69673718 20.45124119 15.69673718 17.71875 17.35546875 C17.05875 17.35546875 16.39875 17.35546875 15.71875 17.35546875 C15.22937571 18.68508947 14.75291419 20.019463 14.28125 21.35546875 C14.01441406 22.09796875 13.74757813 22.84046875 13.47265625 23.60546875 C11.59681 30.44793382 11.53332551 37.49497402 11.40234375 44.54296875 C11.3711721 45.95763428 11.3711721 45.95763428 11.33937073 47.40087891 C11.27447915 50.38567483 11.21527379 53.37055161 11.15625 56.35546875 C11.11300721 58.39063305 11.06939117 60.42578945 11.02539062 62.4609375 C10.9181647 67.42569996 10.81864385 72.3905318 10.71875 77.35546875 C3.78875 77.35546875 -3.14125 77.35546875 -10.28125 77.35546875 C-10.33023438 73.94589844 -10.37921875 70.53632813 -10.4296875 67.0234375 C-10.48382708 63.69046965 -10.54108344 60.35756872 -10.59863281 57.0246582 C-10.63671751 54.72327746 -10.67160462 52.42184134 -10.703125 50.12036133 C-10.74922407 46.7961865 -10.80714125 43.47238626 -10.8671875 40.1484375 C-10.87873871 39.13339645 -10.89028992 38.11835541 -10.90219116 37.07255554 C-10.67479315 25.36231801 -10.67479315 25.36231801 -15.28125 15.35546875 C-20.16833157 14.08482754 -23.89396068 14.19519036 -28.484375 16.15234375 C-31.82973228 18.39227863 -33.20205935 21.5691558 -34.28125 25.35546875 C-35.20062697 31.50508867 -35.48495308 37.54976743 -35.59765625 43.76171875 C-35.61843735 44.72702515 -35.63921844 45.69233154 -35.66062927 46.68688965 C-35.72553962 49.74301662 -35.78473516 52.79922283 -35.84375 55.85546875 C-35.88699099 57.93880998 -35.93060698 60.02214346 -35.97460938 62.10546875 C-36.08185955 67.1887224 -36.18136665 72.27204376 -36.28125 77.35546875 C-43.21125 77.35546875 -50.14125 77.35546875 -57.28125 77.35546875 C-57.28125 51.61546875 -57.28125 25.87546875 -57.28125 -0.64453125 C-51.01125 -0.64453125 -44.74125 -0.64453125 -38.28125 -0.64453125 C-37.95125 1.99546875 -37.62125 4.63546875 -37.28125 7.35546875 C-36.71277344 6.88496094 -36.14429688 6.41445312 -35.55859375 5.9296875 C-25.51312641 -2.17041388 -12.3548576 -7.50503411 0 0 Z " fill="#0097D9" transform="translate(345.28125,133.64453125)"/>
<path d="M0 0 C0.88478027 0.00563965 1.76956055 0.0112793 2.68115234 0.01708984 C14.0293963 0.2285218 23.56886568 3.38136682 32.1328125 11.12890625 C37.835225 17.23863393 42.4561185 24.84000105 43.125 33.3125 C36.06358883 35.91407253 28.6845429 37.71037068 21.125 37.3125 C20.774375 36.11625 20.42375 34.92 20.0625 33.6875 C17.91304648 28.0389361 14.35790313 24.98384992 9.0546875 22.2421875 C2.34796876 19.57392306 -4.35569798 19.82396928 -11.17578125 22.0703125 C-18.08708029 25.16803222 -21.42670965 29.7250861 -24.125 36.625 C-25.77475811 41.54101309 -26.65994542 46.14183988 -26.875 51.3125 C-26.91496094 51.99441406 -26.95492187 52.67632812 -26.99609375 53.37890625 C-27.32821127 63.98713071 -26.25789001 75.52188692 -19.875 84.3125 C-15.3832867 88.92925028 -10.32551653 91.75825087 -3.875 92.3125 C4.4115999 92.40384835 9.75512528 90.52563637 15.8125 84.75 C19.097819 80.54000513 20.52396968 75.33919853 22.125 70.3125 C27.39121606 70.90828777 32.06908019 72.12558796 37.0625 73.875 C37.74634766 74.10896484 38.43019531 74.34292969 39.13476562 74.58398438 C40.80008501 75.15461829 42.46282493 75.73277098 44.125 76.3125 C43.00796859 86.71647857 37.99628687 96.34524212 30.125 103.3125 C20.86421987 110.16828833 11.18397438 112.88334698 -0.25 112.75 C-1.62526855 112.73864014 -1.62526855 112.73864014 -3.02832031 112.72705078 C-17.74706749 112.37040622 -28.70685146 106.37218094 -38.80078125 95.85546875 C-47.82900013 84.78697441 -50.44950585 70.93762698 -50.3125 57 C-50.30492676 55.91058105 -50.29735352 54.82116211 -50.28955078 53.69873047 C-49.9747624 38.22354991 -45.96037294 24.53424778 -35.25 13 C-25.26478926 3.54111814 -13.47965558 -0.08971058 0 0 Z " fill="#0097D9" transform="translate(142.875,100.6875)"/>
<path d="M0 0 C1.5156958 0.00918457 1.5156958 0.00918457 3.06201172 0.01855469 C12.27100679 0.21211481 20.8719385 1.53785846 27.5625 8.4375 C30.61204982 12.79399975 31.66812205 16.47741214 31.73608398 21.74023438 C31.74957382 22.58211304 31.76306366 23.4239917 31.77696228 24.29138184 C31.79261986 25.64761658 31.79261986 25.64761658 31.80859375 27.03125 C31.84156245 28.968754 31.87477354 30.90625389 31.90820312 32.84375 C31.95534199 35.88017654 31.99972745 38.91659021 32.03930664 41.953125 C32.22194904 55.32211132 32.86701442 67.50330046 36.5625 80.4375 C29.3025 80.4375 22.0425 80.4375 14.5625 80.4375 C13.9025 78.1275 13.2425 75.8175 12.5625 73.4375 C11.82644531 73.91960937 11.09039062 74.40171875 10.33203125 74.8984375 C9.35621094 75.53007812 8.38039063 76.16171875 7.375 76.8125 C6.41207031 77.43898438 5.44914062 78.06546875 4.45703125 78.7109375 C-3.66445026 83.55532998 -12.80742696 83.54251217 -22.015625 82.0078125 C-28.35805079 79.9852279 -32.78814671 75.20055213 -36.109375 69.63671875 C-38.65411176 63.50689696 -38.42262228 56.36559764 -36.81640625 49.9609375 C-34.10682783 43.72288584 -29.10381459 40.08081576 -23.0234375 37.35546875 C-13.11437454 33.77164338 -0.05511094 29.4375 10.5625 29.4375 C9.88468508 25.93868395 9.06743465 22.67766179 7.5625 19.4375 C2.62337355 16.77037172 -3.08400878 16.86353348 -8.4375 18.4375 C-11.67794458 21.00285196 -13.13310167 22.524305 -14.4375 26.4375 C-28.0707574 25.65845672 -28.0707574 25.65845672 -34.4375 23.4375 C-34.05889124 16.05462915 -29.61754962 10.71664279 -24.6875 5.5625 C-17.10878748 0.60718797 -8.86746435 -0.09140196 0 0 Z M-1.875 47.1875 C-2.62587891 47.34476563 -3.37675781 47.50203125 -4.15039062 47.6640625 C-8.80353785 48.72810672 -11.95552552 49.98236155 -15.4375 53.4375 C-16.74019943 56.61282986 -16.66406801 57.87774375 -15.375 61.0625 C-12.91882677 64.07329299 -11.12446445 65.18532339 -7.4375 66.4375 C-1.85856486 66.34894547 3.41552146 65.44185758 7.5625 61.4375 C10.35480206 56.31827956 10.9284896 51.17133704 10.5625 45.4375 C6.15510422 45.4375 2.39574151 46.21008008 -1.875 47.1875 Z " fill="#0097D9" transform="translate(456.4375,130.5625)"/>
<path d="M0 0 C8.23042914 6.26655234 12.020299 15.83860213 13.92578125 25.68359375 C13.92578125 30.63359375 13.92578125 35.58359375 13.92578125 40.68359375 C-3.56421875 40.68359375 -21.05421875 40.68359375 -39.07421875 40.68359375 C-36.82758143 50.39410452 -36.82758143 50.39410452 -30.3203125 56.6796875 C-25.22435079 58.92350626 -21.4616162 59.00836362 -16.07421875 57.68359375 C-11.98809492 55.19638794 -10.68968527 53.078827 -9.07421875 48.68359375 C5.70710243 49.64714728 5.70710243 49.64714728 11.92578125 50.68359375 C12.92578125 53.68359375 12.92578125 53.68359375 12.359375 55.48046875 C7.34433649 65.31387759 1.44070551 70.55694643 -8.75 74.796875 C-18.3968191 77.37011582 -31.53562079 77.23214 -40.68359375 73.1328125 C-50.38017516 67.25465612 -55.49885922 60.04566392 -59.1796875 49.5234375 C-60.29503515 44.73572249 -60.40429855 40.2688269 -60.38671875 35.37109375 C-60.40283203 34.48486328 -60.41894531 33.59863281 -60.43554688 32.68554688 C-60.44384923 21.30301292 -56.93654382 10.55588876 -48.77734375 2.3828125 C-34.71109927 -9.56475851 -15.46615729 -9.81562148 0 0 Z M-34.94921875 15.30859375 C-37.80495196 19.30010934 -37.80495196 19.30010934 -38.07421875 27.68359375 C-27.84421875 27.68359375 -17.61421875 27.68359375 -7.07421875 27.68359375 C-8.37005359 18.19132055 -8.37005359 18.19132055 -14.07421875 12.68359375 C-22.24511692 8.52647012 -28.25535482 9.19680494 -34.94921875 15.30859375 Z " fill="#5BA379" transform="translate(672.07421875,137.31640625)"/>
<path d="M0 0 C4.49191731 3.55610121 8.23829576 7.80332804 9.71875 13.45703125 C9.30859375 15.6953125 9.30859375 15.6953125 8.71875 17.45703125 C6.53222261 17.79668599 4.34446975 18.12845602 2.15625 18.45703125 C0.93808594 18.64265625 -0.28007813 18.82828125 -1.53515625 19.01953125 C-5.15752848 19.44258202 -8.63837046 19.5320455 -12.28125 19.45703125 C-12.714375 18.50828125 -13.1475 17.55953125 -13.59375 16.58203125 C-15.07427201 13.25661188 -15.07427201 13.25661188 -18.28125 11.45703125 C-25.33953716 10.02223189 -31.39876097 10.53896054 -38.28125 12.45703125 C-38.33874557 15.37333238 -38.33874557 15.37333238 -37.28125 18.45703125 C-30.13824627 22.31182505 -21.88331169 23.73914263 -14.06054688 25.67578125 C-3.89904543 28.29734234 5.78999165 31.224795 11.71875 40.45703125 C13.80857508 46.72650648 13.95069895 54.75350767 11.15625 60.83203125 C6.70538979 68.20863175 0.88207542 72.77438367 -7.28125 75.45703125 C-12.53184167 76.65807864 -17.60437971 76.67828714 -22.96875 76.70703125 C-24.38317383 76.73796875 -24.38317383 76.73796875 -25.82617188 76.76953125 C-37.03632109 76.83116781 -46.66334722 73.84388505 -54.84765625 65.9453125 C-57.63912659 62.77053579 -59.74364727 59.38646045 -61.28125 55.45703125 C-60.8515625 53.27734375 -60.8515625 53.27734375 -60.28125 51.45703125 C-58.09472261 51.11737651 -55.90696975 50.78560648 -53.71875 50.45703125 C-52.50058594 50.27140625 -51.28242187 50.08578125 -50.02734375 49.89453125 C-46.40497152 49.47148048 -42.92412954 49.382017 -39.28125 49.45703125 C-39.09691406 49.99972656 -38.91257812 50.54242188 -38.72265625 51.1015625 C-37.42887708 54.29288446 -36.33624196 56.76537677 -33.3984375 58.69140625 C-26.42249234 61.34176534 -19.04009374 60.96056875 -12.15625 58.20703125 C-10.11193515 56.54772217 -10.11193515 56.54772217 -9.28125 53.95703125 C-9.03509102 51.47190899 -9.03509102 51.47190899 -10.42016602 49.90161133 C-12.87275216 47.99790515 -15.03593078 47.54006168 -18.05859375 46.84375 C-19.79012695 46.42512695 -19.79012695 46.42512695 -21.55664062 45.99804688 C-23.96211372 45.43741128 -26.36834502 44.88001708 -28.77539062 44.32617188 C-40.34324491 41.51893692 -50.95036211 38.17684072 -57.375 27.66796875 C-59.54685974 22.3693799 -59.10130058 15.49661991 -57.62890625 10.0390625 C-54.61195169 3.34478993 -49.3465484 -0.87473481 -42.78125 -3.91796875 C-29.73828716 -8.22939258 -11.49643406 -7.77584153 0 0 Z " fill="#5BA379" transform="translate(932.28125,136.54296875)"/>
<path d="M0 0 C6.93 0 13.86 0 21 0 C21.06058594 3.12082031 21.12117187 6.24164063 21.18359375 9.45703125 C21.24557286 12.51198292 21.3088815 15.56690438 21.37231445 18.62182617 C21.41536857 20.72922016 21.45706146 22.83664245 21.49731445 24.9440918 C21.55574007 27.99015804 21.61921785 31.03608562 21.68359375 34.08203125 C21.70030624 35.00957718 21.71701874 35.93712311 21.73423767 36.89277649 C21.2568302 49.79257524 21.2568302 49.79257524 26 61 C30.65154871 63.37986213 35.06564303 63.52355644 40 62 C44.27134711 59.56326233 46.45209404 56.62639865 48 52 C49.91464842 41.56131309 49.33963416 30.39635347 49.5625 19.8125 C49.60577792 17.88736208 49.64939487 15.96223174 49.69335938 14.03710938 C49.80011129 9.35815285 49.89990043 4.67912229 50 0 C56.93 0 63.86 0 71 0 C71 25.74 71 51.48 71 78 C64.73 78 58.46 78 52 78 C51.505 73.545 51.505 73.545 51 69 C50.53851562 69.45890625 50.07703125 69.9178125 49.6015625 70.390625 C41.10092315 78.38727388 33.31662636 80.79147188 21.6328125 80.44921875 C15.02753491 79.63243711 9.61554887 77.08975026 5.0625 72.1875 C-0.34198623 63.83511219 -0.40954044 56.6095511 -0.29296875 46.875 C-0.28736341 45.51880363 -0.28309775 44.16260113 -0.28010559 42.80639648 C-0.26873039 39.26188965 -0.23932807 35.71776012 -0.20599365 32.17340088 C-0.17513325 28.54664206 -0.16156638 24.91982143 -0.14648438 21.29296875 C-0.11444986 14.19514471 -0.06174336 7.09763691 0 0 Z " fill="#5BA379" transform="translate(787,133)"/>
<path d="M0 0 C23.00621634 -3.0316557 23.00621634 -3.0316557 29.45654297 1.86474609 C33.76300519 6.93763923 36.61473118 12.81923814 39 19 C42.28792753 15.12705834 44.79377356 11.10320549 47.25 6.6875 C48.4875 4.480625 49.725 2.27375 51 0 C59.91 0 68.82 0 78 0 C73.57621764 6.951658 69.1758286 13.69537318 64.3125 20.3125 C62.68172713 22.54179114 61.05364698 24.77247834 59.43994141 27.01416016 C58.53895993 28.25671413 57.62171105 29.48781207 56.68115234 30.70068359 C54.94284197 33.03707416 53.94853447 34.39506092 54.20068359 37.35888672 C55.1192719 40.39410001 56.4127761 42.44154314 58.24609375 45.02734375 C58.91447266 45.97851074 59.58285156 46.92967773 60.27148438 47.90966797 C60.98626953 48.90885254 61.70105469 49.90803711 62.4375 50.9375 C63.15873047 51.9598877 63.87996094 52.98227539 64.62304688 54.03564453 C67.8248461 58.5672348 71.05434219 63.07891502 74.28515625 67.58984375 C74.75187744 68.24154541 75.21859863 68.89324707 75.69946289 69.56469727 C76.5481284 70.74601034 77.40003699 71.92500225 78.25561523 73.10131836 C81 76.89437534 81 76.89437534 81 78 C72.14543841 79.37005227 62.68171741 80.73055047 54 78 C47.15465951 72.42847494 43.38804989 63.98687622 40 56 C37.3503578 58.90587133 35.69527336 61.54787889 34.37109375 65.20703125 C32.37751292 70.20812319 30.46984247 74.76763894 26 78 C17.25885444 80.20418134 7.859807 79.03031854 -1 78 C3.28183272 71.13831491 7.71599113 64.45812506 12.5 57.9375 C13.05953369 57.1638208 13.61906738 56.3901416 14.19555664 55.59301758 C16.57997802 52.29632592 18.97288304 49.01325508 21.46484375 45.796875 C22.11582031 44.93578125 22.76679687 44.0746875 23.4375 43.1875 C23.99308594 42.47980469 24.54867187 41.77210938 25.12109375 41.04296875 C26.22660134 39.0126824 26.22660134 39.0126824 25.53125 36.76171875 C23.34401482 32.81688387 20.74103119 29.24894051 18.0625 25.625 C17.20265503 24.44756226 17.20265503 24.44756226 16.32543945 23.24633789 C14.55629451 20.8264169 12.77954403 18.41228174 11 16 C10.44344727 15.24541504 9.88689453 14.49083008 9.31347656 13.71337891 C8.77948242 12.98940918 8.24548828 12.26543945 7.6953125 11.51953125 C7.18734131 10.82972168 6.67937012 10.13991211 6.15600586 9.42919922 C5.19084858 8.12017958 4.2229887 6.81314751 3.25219727 5.50830078 C0 1.10988222 0 1.10988222 0 0 Z " fill="#5BA379" transform="translate(694,133)"/>
<path d="M0 0 C6.93 0 13.86 0 21 0 C21 35.64 21 71.28 21 108 C14.07 108 7.14 108 0 108 C0 72.36 0 36.72 0 0 Z " fill="#0098DA" transform="translate(206,103)"/>
<path d="M0 0 C8.50742599 3.03604706 13.83851969 17.24304725 17.6328125 24.953125 C20.95433091 32.39294225 23.48540316 39.82704934 21.109375 47.91796875 C18.70699503 53.37591034 13.96246681 57.2555223 8.72265625 59.90625 C5.42871767 60.92087926 2.55406764 61.03174825 -0.890625 61.04296875 C-2.07527344 61.05972656 -3.25992187 61.07648438 -4.48046875 61.09375 C-10.25371885 60.4897992 -14.83038659 57.74471405 -18.953125 53.73046875 C-23.49053147 47.62640077 -24.0005357 41.11747053 -22.953125 33.73046875 C-19.45973098 21.79728211 -12.25319682 9.95033744 -3.953125 0.73046875 C-1.953125 -0.26953125 -1.953125 -0.26953125 0 0 Z " fill="#0097D9" transform="translate(512.953125,190.26953125)"/>
<path d="M0 0 C6.93 0 13.86 0 21 0 C21 25.74 21 51.48 21 78 C14.07 78 7.14 78 0 78 C0 52.26 0 26.52 0 0 Z " fill="#0098DA" transform="translate(248,133)"/>
<path d="M0 0 C5.90184806 4.81686185 9.19703637 10.86018183 10.6875 18.3125 C11.26709924 24.45625194 9.63127449 29.56216713 7.6875 35.3125 C7.18863281 34.91417969 6.68976563 34.51585937 6.17578125 34.10546875 C-3.69906387 26.81900314 -15.25550514 25.20139462 -27.3125 26.3125 C-34.21726704 27.56133074 -40.17906057 29.9564671 -46.3125 33.3125 C-48.850983 25.39840594 -49.13090972 17.6255372 -45.5625 9.9375 C-41.71082374 3.159102 -35.0403029 -2.85368188 -27.4375 -5 C-17.71046374 -6.94540725 -8.27871842 -5.71107079 0 0 Z " fill="#FDCA28" transform="translate(351.3125,93.6875)"/>
<path d="M0 0 C-0.47986031 5.56890517 -1.29915181 10.67067568 -3 16 C-12.11588896 13.34810503 -20.4774059 9.1194169 -29 5 C-29 10.61 -29 16.22 -29 22 C-35.93 22 -42.86 22 -50 22 C-50 16.06 -50 10.12 -50 4 C-42.125 3.625 -42.125 3.625 -39.64892578 3.52197266 C-35.36288412 3.41504221 -35.36288412 3.41504221 -32 1 C-29.22262799 0.68411863 -26.53670003 0.48437755 -23.75 0.375 C-22.54947998 0.31807983 -22.54947998 0.31807983 -21.32470703 0.26000977 C-14.21494177 -0.05147508 -7.11601171 -0.1029648 0 0 Z " fill="#0098DA" transform="translate(298,99)"/>
<path d="M0 0 C11.04447013 -0.11875774 21.97862475 0.34200745 33 1 C33.495 1.99 33.495 1.99 34 3 C30.07316001 4.88228379 26.14049786 6.75161346 22.2019043 8.60913086 C20.86265933 9.24296331 19.52507553 9.88031807 18.18920898 10.52124023 C16.26971508 11.44142837 14.34462097 12.3488209 12.41796875 13.25390625 C11.26063232 13.80377197 10.1032959 14.3536377 8.91088867 14.92016602 C6 16 6 16 3 15 C2.01 10.05 1.02 5.1 0 0 Z " fill="#FCCA27" transform="translate(365,99)"/>
<path d="M0 0 C-0.47986031 5.56890517 -1.29915181 10.67067568 -3 16 C-10.12696516 13.78157548 -16.79580668 10.95177996 -23.5625 7.8125 C-24.57119141 7.34908203 -25.57988281 6.88566406 -26.61914062 6.40820312 C-29.0813725 5.27627662 -31.54156694 4.1401475 -34 3 C-31.04080296 0.04080296 -27.73065367 0.53124004 -23.75 0.375 C-22.54947998 0.31807983 -22.54947998 0.31807983 -21.32470703 0.26000977 C-14.21494177 -0.05147508 -7.11601171 -0.1029648 0 0 Z " fill="#FBC927" transform="translate(298,99)"/>
<path d="M0 0 C6.02121195 1.62032614 11.06110482 4.71395251 16.375 7.875 C17.30183594 8.40480469 18.22867187 8.93460938 19.18359375 9.48046875 C20.49650391 10.25970703 20.49650391 10.25970703 21.8359375 11.0546875 C23.03549072 11.75827393 23.03549072 11.75827393 24.25927734 12.47607422 C24.83371582 12.97896973 25.4081543 13.48186523 26 14 C26 18 26 18 24.35546875 20.10546875 C23.64003906 20.79253906 22.92460937 21.47960937 22.1875 22.1875 C21.12595703 23.22970703 21.12595703 23.22970703 20.04296875 24.29296875 C18 26 18 26 15 27 C14.41992188 26.03320312 13.83984375 25.06640625 13.2421875 24.0703125 C12.67842407 23.13094849 12.67842407 23.13094849 12.10327148 22.17260742 C11.28189659 20.80332274 10.46109919 19.43369148 9.64086914 18.0637207 C7.7957065 14.98335753 5.94387605 11.90850095 4.06640625 8.84765625 C3.52886719 7.96980469 2.99132812 7.09195313 2.4375 6.1875 C1.96183594 5.41792969 1.48617188 4.64835937 0.99609375 3.85546875 C0 2 0 2 0 0 Z " fill="#F9C827" transform="translate(284,70)"/>
<path d="M0 0 C0.66 0.33 1.32 0.66 2 1 C-2.62 9.25 -7.24 17.5 -12 26 C-16 26 -16 26 -18.578125 23.8125 C-19.45984375 22.884375 -20.3415625 21.95625 -21.25 21 C-22.14203125 20.071875 -23.0340625 19.14375 -23.953125 18.1875 C-24.96632813 17.1046875 -24.96632813 17.1046875 -26 16 C-21.22305571 11.81380788 -15.801532 8.82462134 -10.3125 5.6875 C-8.86907227 4.84348633 -8.86907227 4.84348633 -7.39648438 3.98242188 C-6.47802734 3.45583984 -5.55957031 2.92925781 -4.61328125 2.38671875 C-3.77579346 1.90420654 -2.93830566 1.42169434 -2.07543945 0.92456055 C-1.39054443 0.61945557 -0.70564941 0.31435059 0 0 Z " fill="#F9C827" transform="translate(378,70)"/>
<path d="M0 0 C0.33 0 0.66 0 1 0 C1.50790159 3.51973999 2.00488523 7.04094042 2.5 10.5625 C2.64308594 11.55314453 2.78617187 12.54378906 2.93359375 13.56445312 C3.06894531 14.53447266 3.20429688 15.50449219 3.34375 16.50390625 C3.46943359 17.38892822 3.59511719 18.2739502 3.72460938 19.18579102 C4.04334327 22.44292364 4 25.72730933 4 29 C-1.28 28.34 -6.56 27.68 -12 27 C-11.20402687 23.02013435 -10.45440547 20.49812657 -8.75 16.953125 C-8.3065625 16.02628906 -7.863125 15.09945312 -7.40625 14.14453125 C-6.9421875 13.18933594 -6.478125 12.23414062 -6 11.25 C-5.30390625 9.79400391 -5.30390625 9.79400391 -4.59375 8.30859375 C-1.14925876 1.14925876 -1.14925876 1.14925876 0 0 Z " fill="#F9C827" transform="translate(345,56)"/>
<path d="M0 0 C2.25299489 2.83577175 3.92357476 5.6472292 5.48046875 8.9140625 C5.92197266 9.83960937 6.36347656 10.76515625 6.81835938 11.71875 C7.27017578 12.6778125 7.72199219 13.636875 8.1875 14.625 C8.65091797 15.59179688 9.11433594 16.55859375 9.59179688 17.5546875 C13 24.74253268 13 24.74253268 13 27 C7.72 27.66 2.44 28.32 -3 29 C-3.21985322 22.95403655 -2.76652224 17.12187414 -2.0625 11.125 C-1.97564941 10.37549072 -1.88879883 9.62598145 -1.79931641 8.85375977 C-1.42150214 5.76664706 -0.98622907 2.95868722 0 0 Z " fill="#FAC927" transform="translate(318,56)"/>
</svg>
